GIL08_xslow2_ik
nRows=3
nColumns=375

# SIMM Motion File Header:
name GIL08_xslow2_ik
datacolumns 375
datarows 3
otherdata 1
range 0.25833000 0.27500000
endheader
time	pelvis_tx	pelvis_ty	pelvis_tz	pelvis_tilt	pelvis_list	pelvis_rotation	hip_flexion_r	hip_adduction_r	hip_rotation_r	knee_angle_r	ankle_angle_r	hip_flexion_l	hip_adduction_l	hip_rotation_l	knee_angle_l	ankle_angle_l	lumbar_extension	lumbar_bending	lumbar_rotation	subtalar_angle_r	mtp_angle_r	subtalar_angle_l	mtp_angle_l	asis_r_px	asis_r_py	asis_r_pz	asis_l_px	asis_l_py	asis_l_pz	midasis_px	midasis_py	midasis_pz	psis_r_px	psis_r_py	psis_r_pz	psis_l_px	psis_l_py	psis_l_pz	hip_r_px	hip_r_py	hip_r_pz	hip_l_px	hip_l_py	hip_l_pz	midhip_px	midhip_py	midhip_pz	epicondLat_r_px	epicondLat_r_py	epicondLat_r_pz	epicondMed_r_px	epicondMed_r_py	epicondMed_r_pz	thighwand_r_px	thighwand_r_py	thighwand_r_pz	upperleg1_r_px	upperleg1_r_py	upperleg1_r_pz	upperleg2_r_px	upperleg2_r_py	upperleg2_r_pz	malleolusLat_r_px	malleolusLat_r_py	malleolusLat_r_pz	malleolusMedv_r_px	malleolusMedv_r_py	malleolusMedv_r_pz	shankwand_r_px	shankwand_r_py	shankwand_r_pz	lowerleg1_r_px	lowerleg1_r_py	lowerleg1_r_pz	knee_r_px	knee_r_py	knee_r_pz	ankle_r_px	ankle_r_py	ankle_r_pz	toe_r_px	toe_r_py	toe_r_pz	epicondLat_l_px	epicondLat_l_py	epicondLat_l_pz	epicondMed_l_px	epicondMed_l_py	epicondMed_l_pz	thighwand_l_px	thighwand_l_py	thighwand_l_pz	upperleg1_l_px	upperleg1_l_py	upperleg1_l_pz	upperleg2_l_px	upperleg2_l_py	upperleg2_l_pz	malleolusLat_l_px	malleolusLat_l_py	malleolusLat_l_pz	malleolusMedv_l_px	malleolusMedv_l_py	malleolusMedv_l_pz	shankwand_l_px	shankwand_l_py	shankwand_l_pz	lowerleg1_l_px	lowerleg1_l_py	lowerleg1_l_pz	knee_l_px	knee_l_py	knee_l_pz	ankle_l_px	ankle_l_py	ankle_l_pz	toe_l_px	toe_l_py	toe_l_pz	subclavicle_r_px	subclavicle_r_py	subclavicle_r_pz	subclavicle_l_px	subclavicle_l_py	subclavicle_l_pz	neck_px	neck_py	neck_pz	sternalnotch_px	sternalnotch_py	sternalnotch_pz	xyphoidprocess_px	xyphoidprocess_py	xyphoidprocess_pz	midhip_tx	midhip_ty	midhip_tz	hip_r_tx	hip_r_ty	hip_r_tz	hip_l_tx	hip_l_ty	hip_l_tz	knee_r_tx	knee_r_ty	knee_r_tz	knee_l_tx	knee_l_ty	knee_l_tz	ankle_r_tx	ankle_r_ty	ankle_r_tz	ankle_l_tx	ankle_l_ty	ankle_l_tz	midasis_tx	midasis_ty	midasis_tz	asis_r_tx	asis_r_ty	asis_r_tz	asis_l_tx	asis_l_ty	asis_l_tz	psis_r_tx	psis_r_ty	psis_r_tz	psis_l_tx	psis_l_ty	psis_l_tz	epicondLat_r_tx	epicondLat_r_ty	epicondLat_r_tz	epicondLat_l_tx	epicondLat_l_ty	epicondLat_l_tz	epicondMed_r_tx	epicondMed_r_ty	epicondMed_r_tz	epicondMed_l_tx	epicondMed_l_ty	epicondMed_l_tz	malleolusLat_r_tx	malleolusLat_r_ty	malleolusLat_r_tz	malleolusLat_l_tx	malleolusLat_l_ty	malleolusLat_l_tz	malleolusMedv_r_tx	malleolusMedv_r_ty	malleolusMedv_r_tz	malleolusMedv_l_tx	malleolusMedv_l_ty	malleolusMedv_l_tz	neck_tx	neck_ty	neck_tz	subclavicle_r_tx	subclavicle_r_ty	subclavicle_r_tz	subclavicle_l_tx	subclavicle_l_ty	subclavicle_l_tz	sternalnotch_tx	sternalnotch_ty	sternalnotch_tz	xyphoidprocess_tx	xyphoidprocess_ty	xyphoidprocess_tz	thighwand_r_tx	thighwand_r_ty	thighwand_r_tz	thighwand_l_tx	thighwand_l_ty	thighwand_l_tz	upperleg1_r_tx	upperleg1_r_ty	upperleg1_r_tz	upperleg1_l_tx	upperleg1_l_ty	upperleg1_l_tz	upperleg2_r_tx	upperleg2_r_ty	upperleg2_r_tz	upperleg2_l_tx	upperleg2_l_ty	upperleg2_l_tz	shankwand_r_tx	shankwand_r_ty	shankwand_r_tz	shankwand_l_tx	shankwand_l_ty	shankwand_l_tz	lowerleg1_r_tx	lowerleg1_r_ty	lowerleg1_r_tz	lowerleg1_l_tx	lowerleg1_l_ty	lowerleg1_l_tz	toe_r_tx	toe_r_ty	toe_r_tz	toe_l_tx	toe_l_ty	toe_l_tz	ground_force_vx	ground_force_vy	ground_force_vz	ground_force_px	ground_force_py	ground_force_pz	ground_force_vx	ground_force_vy	ground_force_vz	ground_force_px	ground_force_py	ground_force_pz	ground_torque_x	ground_torque_y	ground_torque_z	ground_torque_x	ground_torque_y	ground_torque_z	ground_marker_px	ground_marker_py	ground_marker_pz	ground_marker_px	ground_marker_py	ground_marker_pz	ground_marker_px	ground_marker_py	ground_marker_pz	ground_marker_px	ground_marker_py	ground_marker_pz	ground_marker_px	ground_marker_py	ground_marker_pz	ground_marker_px	ground_marker_py	ground_marker_pz	ground_marker_px	ground_marker_py	ground_marker_pz	ground_marker_px	ground_marker_py	ground_marker_pz	ground_marker_px	ground_marker_py	ground_marker_pz	ground_marker_px	ground_marker_py	ground_marker_pz	ground_marker_px	ground_marker_py	ground_marker_pz	ground_marker_px	ground_marker_py	ground_marker_pz	ground_marker_px	ground_marker_py	ground_marker_pz	ground_marker_px	ground_marker_py	ground_marker_pz	ground_marker_px	ground_marker_py	ground_marker_pz	ground_marker_px	ground_marker_py	ground_marker_pz	ground_marker_px	ground_marker_py	ground_marker_pz	ground_marker_px	ground_marker_py	ground_marker_pz	ground_marker_px	ground_marker_py	ground_marker_pz	ground_marker_px	ground_marker_py	ground_marker_pz	ground_marker_px	ground_marker_py	ground_marker_pz	ground_marker_px	ground_marker_py	ground_marker_pz	ground_marker_px	ground_marker_py	ground_marker_pz	ground_marker_px	ground_marker_py	ground_marker_pz	ground_marker_px	ground_marker_py	ground_marker_pz	ground_marker_px	ground_marker_py	ground_marker_pz	ground_marker_px	ground_marker_py	ground_marker_pz	ground_marker_px	ground_marker_py	ground_marker_pz	ground_marker_px	ground_marker_py	ground_marker_pz	ground_marker_px	ground_marker_py	ground_marker_pz	ground_marker_px	ground_marker_py	ground_marker_pz	ground_marker_px	ground_marker_py	ground_marker_pz	ground_marker_px	ground_marker_py	ground_marker_pz	ground_marker_px	ground_marker_py	ground_marker_pz	ground_marker_px	ground_marker_py	ground_marker_pz	ground_marker_px	ground_marker_py	ground_marker_pz	ground_marker_px	ground_marker_py	ground_marker_pz
      0.25833000	     -0.83883693	      0.96233440	      0.27617774	      2.85203051	      1.98836049	     -2.20044815	     -5.76163574	     -5.30508689	      6.91939049	    -36.78056683	    -13.80939804	      9.14307837	      2.16508651	      4.91174348	    -11.45730369	     -0.74578906	    -10.92777262	     -4.71038167	      6.37761104	      0.00000000	      0.00000000	      0.00000000	      0.00000000	     -0.79503539	      0.98058508	      0.37796949	     -0.79451799	      0.99181198	      0.16531180	     -0.82721084	      0.96289805	      0.27662471	     -0.99811135	      0.98439093	      0.31479561	     -1.00029016	      0.98966200	      0.22680872	     -0.89735817	      0.90205396	      0.34139318	     -0.89226950	      0.90713089	      0.20263146	     -0.89481383	      0.90459242	      0.27201232	     -0.86654075	      0.46684418	      0.41015052	     -0.90157834	      0.48227998	      0.29581552	     -0.81705034	      0.58676041	      0.47511281	     -0.81139307	      0.64210057	      0.39939370	     -0.81894142	      0.55969332	      0.38174986	     -1.20100219	      0.16182803	      0.44685465	     -1.20807845	      0.15848832	      0.37876164	     -1.12966620	      0.20354596	      0.50383900	     -1.10696374	      0.25359756	      0.43742871	     -0.91809429	      0.48550672	      0.36384681	     -1.18430288	      0.16722347	      0.40332400	     -1.14927876	      0.05256001	      0.40004960	     -0.76098533	      0.49113799	      0.13896557	     -0.79173870	      0.49224377	      0.24271764	     -0.65964295	      0.65631585	      0.21152207	     -0.74039912	      0.69886169	      0.16414000	     -0.73197152	      0.61248760	      0.16353262	     -0.80922459	      0.06394701	      0.15819968	     -0.80700843	      0.07112986	      0.22763827	     -0.70148650	      0.17130329	      0.21263700	     -0.76668895	      0.22254896	      0.19535705	     -0.80976266	      0.50139407	      0.20622352	     -0.80586506	      0.08465792	      0.19947931	     -0.68181722	      0.04000447	      0.20017038	     -0.83951811	      1.37145166	      0.34628456	     -0.84554094	      1.37029409	      0.19075727	     -0.93784100	      1.44857510	      0.26106748	     -0.85489830	      1.37284416	      0.26502143	     -0.82873512	      1.16967910	      0.25885936	     -0.90039700	      0.90039600	      0.27194100	     -0.90186400	      0.88801800	      0.32170700	     -0.89825000	      0.89178400	      0.21526500	     -0.92220700	      0.47443700	      0.35330700	     -0.80988000	      0.48707400	      0.20936100	     -1.19032500	      0.15390000	      0.37826200	     -0.80772500	      0.06736300	      0.22902100	     -0.81904600	      0.98464000	      0.27458800	     -0.82255200	      0.98098600	      0.37786900	     -0.81554000	      0.98829500	      0.17130700	     -1.02036800	      1.01500900	      0.30862700	     -1.01863000	      1.01793900	      0.22323200	     -0.91635400	      0.47866100	      0.41236800	     -0.80258400	      0.48952800	      0.15036100	     -0.90723600	      0.47517200	      0.29413600	     -0.83046900	      0.48556500	      0.25632700	     -1.19580700	      0.16135500	      0.41511800	     -0.81088300	      0.06550400	      0.18969100	     -1.18942100	      0.16575800	      0.34656400	     -0.80447200	      0.08020900	      0.25790200	     -0.93226400	      1.47003400	      0.26036200	     -0.84054000	      1.39487500	      0.34546700	     -0.83949400	      1.39389500	      0.18964100	     -0.85222000	      1.39637000	      0.26349700	     -0.82591700	      1.19315700	      0.25820700	     -0.88292200	      0.58087100	      0.48930700	     -0.69180900	      0.63819800	      0.20614300	     -0.85503000	      0.63792400	      0.41737300	     -0.77125700	      0.68205800	      0.15841300	     -0.85566600	      0.55521300	      0.39971000	     -0.76745700	      0.59460600	      0.16506500	     -1.13857000	      0.22350400	      0.47909400	     -0.70790800	      0.18573200	      0.22739300	     -1.11166100	      0.27153200	      0.41393200	     -0.77577500	      0.23248100	      0.21411000	     -1.14293300	      0.05060400	      0.34381900	     -0.68130400	      0.04296900	      0.23787500	      0.00000000	      0.00000000	      0.00000000	     -0.48100407	      0.00000000	      0.35165182	    -36.77088075	    579.33462336	     12.68794007	     -0.79041486	      0.00000000	      0.22129103	      0.00000000	      0.00000000	      0.00000000	      0.00000000	      0.92519104	      0.00000000	     -0.90039659	      0.90039551	      0.27194053	     -0.90186352	      0.88801831	      0.32170734	     -0.89825046	      0.89178431	      0.21526524	     -0.92220682	      0.47443676	      0.35330698	     -0.80988038	      0.48707408	      0.20936143	     -1.19032454	      0.15389952	      0.37826207	     -0.80772501	      0.06736288	      0.22902060	     -0.81904626	      0.98464048	      0.27458805	     -0.82255203	      0.98098636	      0.37786889	     -0.81554049	      0.98829460	      0.17130722	     -1.02036846	      1.01500857	      0.30862716	     -1.01862979	      1.01793897	      0.22323152	     -0.91635424	      0.47866142	      0.41236752	     -0.80258405	      0.48952791	      0.15036149	     -0.90723646	      0.47517195	      0.29413629	     -0.83046907	      0.48556522	      0.25632730	     -1.19580674	      0.16135451	      0.41511813	     -0.81088251	      0.06550448	      0.18969089	     -1.18942082	      0.16575816	      0.34656444	     -0.80447209	      0.08020939	      0.25790152	     -0.93226355	      1.47003436	      0.26036161	     -0.84054011	      1.39487529	      0.34546745	     -0.83949357	      1.39389539	      0.18964055	     -0.85221958	      1.39637041	      0.26349741	     -0.82591683	      1.19315708	      0.25820658	     -0.88292181	      0.58087111	      0.48930660	     -0.69180942	      0.63819820	      0.20614253	     -0.85502958	      0.63792419	      0.41737261	     -0.77125734	      0.68205792	      0.15841274	     -0.85566550	      0.55521291	      0.39970994	     -0.76745677	      0.59460604	      0.16506520	     -1.13856995	      0.22350356	      0.47909361	     -0.70790845	      0.18573245	      0.22739284	     -1.11166072	      0.27153218	      0.41393179	     -0.77577549	      0.23248136	      0.21410953	     -1.14293349	      0.05060437	      0.34381875	     -0.68130428	      0.04296905	      0.23787549
      0.26667000	     -0.83425522	      0.96254305	      0.27562891	      2.83316431	      2.00652469	     -2.18743958	     -5.10538226	     -5.39474097	      6.94341025	    -37.85864874	    -12.86335276	      8.78442639	      2.27164530	      5.24913076	    -11.32966221	     -0.47425782	    -10.95830474	     -4.82437937	      6.40681819	      0.00000000	      0.00000000	      0.00000000	      0.00000000	     -0.79042315	      0.98074858	      0.37741561	     -0.78995367	      0.99204026	      0.16476123	     -0.82262885	      0.96310284	      0.27607324	     -0.99351318	      0.98463897	      0.31429212	     -0.99571162	      0.98993761	      0.22630737	     -0.89278003	      0.90226151	      0.34084013	     -0.88772335	      0.90737918	      0.20207873	     -0.89025169	      0.90482035	      0.27145943	     -0.85713904	      0.46753293	      0.41030678	     -0.89237965	      0.48239160	      0.29595772	     -0.80895574	      0.58809561	      0.47505483	     -0.80393276	      0.64336936	      0.39924253	     -0.81057627	      0.56085469	      0.38173735	     -1.19421038	      0.16410668	      0.44788593	     -1.20126952	      0.16059510	      0.37979979	     -1.12259175	      0.20546488	      0.50477790	     -1.09946410	      0.25511971	      0.43821664	     -0.90877335	      0.48532620	      0.36398837	     -1.17744293	      0.16922905	      0.40434849	     -1.14141528	      0.05486108	      0.40168432	     -0.75882575	      0.49052288	      0.13918836	     -0.79015906	      0.49184271	      0.24276426	     -0.65680965	      0.65503697	      0.21230663	     -0.73701355	      0.69810910	      0.16446423	     -0.72915229	      0.61168126	      0.16391087	     -0.80904952	      0.06364990	      0.15830580	     -0.80719828	      0.07085035	      0.22775325	     -0.70115412	      0.17055435	      0.21331772	     -0.76603150	      0.22207851	      0.19564682	     -0.80794321	      0.50111402	      0.20616414	     -0.80583487	      0.08436216	      0.19959628	     -0.68177895	      0.03974561	      0.20092500	     -0.83451854	      1.37171848	      0.34514289	     -0.84070567	      1.37032237	      0.18962401	     -0.93285862	      1.44880015	      0.25990784	     -0.84998271	      1.37299781	      0.26389383	     -0.82401608	      1.16979890	      0.25802354	     -0.89592300	      0.90039700	      0.27136700	     -0.89717000	      0.88823000	      0.32094900	     -0.89354200	      0.89204900	      0.21450900	     -0.91295700	      0.47413100	      0.35307600	     -0.80789800	      0.48694500	      0.20904500	     -1.18347000	      0.15580900	      0.37949800	     -0.80784500	      0.06734700	      0.22927800	     -0.81431700	      0.98485000	      0.27388900	     -0.81783600	      0.98114500	      0.37716400	     -0.81079700	      0.98855500	      0.17061400	     -1.01564200	      1.01520900	      0.30826300	     -1.01391300	      1.01827000	      0.22285600	     -0.90714900	      0.47849100	      0.41213100	     -0.80023000	      0.48936200	      0.15009100	     -0.89883300	      0.47490600	      0.29384000	     -0.82856900	      0.48559000	      0.25562700	     -1.18829700	      0.16298300	      0.41650200	     -0.81075000	      0.06544900	      0.18993100	     -1.18275600	      0.16808000	      0.34798500	     -0.80443500	      0.08009300	      0.25814400	     -0.92728500	      1.47020300	      0.25916500	     -0.83554400	      1.39521600	      0.34430300	     -0.83462100	      1.39402800	      0.18846500	     -0.84728900	      1.39660000	      0.26233400	     -0.82096700	      1.19338300	      0.25729400	     -0.87484800	      0.58093700	      0.48897500	     -0.68891500	      0.63755900	      0.20657700	     -0.84764600	      0.63813500	      0.41690700	     -0.76779200	      0.68194100	      0.15838100	     -0.84763100	      0.55537500	      0.39924600	     -0.76443500	      0.59445600	      0.16494400	     -1.12943700	      0.22411200	      0.48005600	     -0.70728700	      0.18528500	      0.22816000	     -1.10329300	      0.27266200	      0.41501600	     -0.77489900	      0.23232200	      0.21425400	     -1.13578000	      0.05285300	      0.34497400	     -0.68118400	      0.04287000	      0.23797500	      0.00000000	      0.00000000	      0.00000000	     -0.47781027	      0.00000000	      0.35113342	    -35.91693957	    584.27975963	     14.29037187	     -0.79005725	      0.00000000	      0.22165204	      0.00000000	      0.00000000	      0.00000000	      0.00000000	      0.79502057	      0.00000000	     -0.89592302	      0.90039694	      0.27136680	     -0.89716989	      0.88823009	      0.32094923	     -0.89354241	      0.89204866	      0.21450949	     -0.91295719	      0.47413066	      0.35307556	     -0.80789781	      0.48694527	      0.20904498	     -1.18347001	      0.15580937	      0.37949839	     -0.80784512	      0.06734715	      0.22927846	     -0.81431663	      0.98485017	      0.27388895	     -0.81783623	      0.98114520	      0.37716371	     -0.81079704	      0.98855519	      0.17061417	     -1.01564240	      1.01520908	      0.30826283	     -1.01391280	      1.01826978	      0.22285578	     -0.90714866	      0.47849074	      0.41213062	     -0.80023032	      0.48936155	      0.15009059	     -0.89883304	      0.47490624	      0.29383969	     -0.82856947	      0.48559025	      0.25562671	     -1.18829668	      0.16298267	      0.41650170	     -0.81075037	      0.06544942	      0.18993118	     -1.18275642	      0.16808014	      0.34798488	     -0.80443478	      0.08009254	      0.25814372	     -0.92728478	      1.47020316	      0.25916520	     -0.83554411	      1.39521587	      0.34430325	     -0.83462071	      1.39402819	      0.18846457	     -0.84728861	      1.39660025	      0.26233432	     -0.82096720	      1.19338322	      0.25729367	     -0.87484813	      0.58093667	      0.48897532	     -0.68891484	      0.63755870	      0.20657746	     -0.84764600	      0.63813531	      0.41690707	     -0.76779151	      0.68194067	      0.15838118	     -0.84763134	      0.55537492	      0.39924619	     -0.76443547	      0.59445643	      0.16494390	     -1.12943661	      0.22411245	      0.48005623	     -0.70728701	      0.18528500	      0.22816022	     -1.10329270	      0.27266234	      0.41501552	     -0.77489877	      0.23232222	      0.21425383	     -1.13578010	      0.05285348	      0.34497449	     -0.68118364	      0.04287047	      0.23797488
      0.27500000	     -0.82974398	      0.96274307	      0.27514014	      2.82089888	      2.01696000	     -2.17676814	     -4.43888598	     -5.44666149	      6.99043821	    -38.90735798	    -11.51080196	      8.42562661	      2.36246611	      5.54066525	    -11.21632504	     -0.18776608	    -11.00057523	     -4.92721788	      6.45128126	      0.00000000	      0.00000000	      0.00000000	      0.00000000	     -0.78588830	      0.98092191	      0.37692144	     -0.78545791	      0.99225023	      0.16426892	     -0.81811740	      0.96330036	      0.27558230	     -0.98898981	      0.98486535	      0.31383820	     -0.99120430	      0.99017965	      0.22585481	     -0.88826859	      0.90246241	      0.34035235	     -0.88323789	      0.90760300	      0.20159086	     -0.88575324	      0.90503270	      0.27097160	     -0.84766138	      0.46824418	      0.41028389	     -0.88313784	      0.48257365	      0.29594021	     -0.80080784	      0.58941801	      0.47486678	     -0.79645777	      0.64465961	      0.39898948	     -0.80217651	      0.56205527	      0.38158092	     -1.18705687	      0.16616155	      0.44865267	     -1.19411668	      0.16251175	      0.38057387	     -1.11517508	      0.20718243	      0.50545689	     -1.09168381	      0.25649426	      0.43876810	     -0.89938952	      0.48517995	      0.36397781	     -1.17023970	      0.17104904	      0.40510740	     -1.13231719	      0.05728250	      0.40306315	     -0.75673576	      0.48991072	      0.13938683	     -0.78856433	      0.49145077	      0.24280856	     -0.65401470	      0.65377357	      0.21297898	     -0.73370403	      0.69735571	      0.16474024	     -0.72639967	      0.61087873	      0.16423707	     -0.80898015	      0.06336122	      0.15843428	     -0.80743709	      0.07058335	      0.22788701	     -0.70087453	      0.16980171	      0.21393097	     -0.76543126	      0.22161034	      0.19592076	     -0.80613435	      0.50083660	      0.20611753	     -0.80587463	      0.08407667	      0.19973151	     -0.68180642	      0.03951347	      0.20159593	     -0.82955007	      1.37194941	      0.34406787	     -0.83593253	      1.37033211	      0.18855902	     -0.92791674	      1.44900789	      0.25884253	     -0.84511420	      1.37312582	      0.26283634	     -0.81936464	      1.16989180	      0.25723136	     -0.89153600	      0.90039600	      0.27085300	     -0.89254500	      0.88843100	      0.32027200	     -0.88890100	      0.89228700	      0.21383400	     -0.90362900	      0.47388500	      0.35270700	     -0.80593100	      0.48680900	      0.20875400	     -1.17628100	      0.15753700	      0.38047700	     -0.80801000	      0.06733000	      0.22953800	     -0.80966600	      0.98505200	      0.27326000	     -0.81320300	      0.98130900	      0.37654800	     -0.80612900	      0.98879500	      0.16997100	     -1.01102700	      1.01539100	      0.30792400	     -1.00930100	      1.01856400	      0.22251000	     -0.89784900	      0.47835100	      0.41175700	     -0.79794100	      0.48918200	      0.14984100	     -0.89040900	      0.47461900	      0.29357000	     -0.82669400	      0.48556100	      0.25495400	     -1.18046900	      0.16440700	      0.41761500	     -0.81064300	      0.06539200	      0.19017300	     -1.17546600	      0.16987300	      0.34904200	     -0.80440000	      0.07999600	      0.25838400	     -0.92241100	      1.47036100	      0.25805500	     -0.83058300	      1.39552200	      0.34322100	     -0.82979300	      1.39414600	      0.18732000	     -0.84239800	      1.39680300	      0.26122900	     -0.81600600	      1.19358900	      0.25641200	     -0.86669700	      0.58101300	      0.48851100	     -0.68607600	      0.63690300	      0.20693400	     -0.84017800	      0.63835400	      0.41631900	     -0.76446900	      0.68174600	      0.15830200	     -0.83954700	      0.55563000	      0.39875000	     -0.76153500	      0.59425200	      0.16478500	     -1.12008500	      0.22451400	      0.48076200	     -0.70667800	      0.18485300	      0.22899100	     -1.09470200	      0.27358600	      0.41579500	     -0.77401700	      0.23214600	      0.21441300	     -1.12738400	      0.05514300	      0.34634300	     -0.68105800	      0.04278900	      0.23808000	      0.00000000	      0.00000000	      0.00000000	     -0.47464793	      0.00000000	      0.35061066	    -34.94375230	    590.16493286	     15.94986418	     -0.78964624	      0.00000000	      0.22212006	      0.00000000	      0.00000000	      0.00000000	      0.00000000	      0.65296283	      0.00000000	     -0.89153576	      0.90039581	      0.27085328	     -0.89254516	      0.88843071	      0.32027188	     -0.88890052	      0.89228743	      0.21383411	     -0.90362948	      0.47388500	      0.35270724	     -0.80593097	      0.48680902	      0.20875418	     -1.17628133	      0.15753719	      0.38047662	     -0.80800962	      0.06732958	      0.22953792	     -0.80966604	      0.98505205	      0.27325964	     -0.81320280	      0.98130947	      0.37654835	     -0.80612922	      0.98879462	      0.16997096	     -1.01102722	      1.01539052	      0.30792424	     -1.00930130	      1.01856387	      0.22251010	     -0.89784944	      0.47835070	      0.41175720	     -0.79794121	      0.48918197	      0.14984082	     -0.89040917	      0.47461945	      0.29356951	     -0.82669383	      0.48556134	      0.25495377	     -1.18046939	      0.16440679	      0.41761515	     -0.81064260	      0.06539225	      0.19017342	     -1.17546582	      0.16987267	      0.34904224	     -0.80440044	      0.07999644	      0.25838414	     -0.92241102	      1.47036123	      0.25805542	     -0.83058333	      1.39552224	      0.34322059	     -0.82979280	      1.39414561	      0.18732038	     -0.84239846	      1.39680278	      0.26122898	     -0.81600618	      1.19358933	      0.25641179	     -0.86669695	      0.58101326	      0.48851052	     -0.68607616	      0.63690251	      0.20693393	     -0.84017795	      0.63835400	      0.41631949	     -0.76446867	      0.68174571	      0.15830173	     -0.83954668	      0.55563003	      0.39874986	     -0.76153463	      0.59425163	      0.16478540	     -1.12008524	      0.22451401	      0.48076156	     -0.70667803	      0.18485267	      0.22899099	     -1.09470236	      0.27358559	      0.41579524	     -0.77401716	      0.23214617	      0.21441253	     -1.12738431	      0.05514259	      0.34634325	     -0.68105751	      0.04278933	      0.23808043
